<svg version="1.1" viewBox="0.0 0.0 283.18110236220474 222.4488188976378" fill="none" stroke="none" stroke-linecap="square" stroke-miterlimit="10" xmlns:xlink="http://www.w3.org/1999/xlink" xmlns="http://www.w3.org/2000/svg"><clipPath id="p.0"><path d="m0 0l283.1811 0l0 222.44882l-283.1811 0l0 -222.44882z" clip-rule="nonzero"/></clipPath><g clip-path="url(#p.0)"><path fill="#000000" fill-opacity="0.0" d="m0 0l283.1811 0l0 222.44882l-283.1811 0z" fill-rule="evenodd"/><path fill="#cfe2f3" d="m21.530184 45.551846l0 0c0 -18.357674 14.881834 -33.23951 33.23951 -33.23951l181.332 0c8.815659 0 17.270264 3.5020094 23.503891 9.735626c6.233612 6.233618 9.735626 14.688217 9.735626 23.503883l0 132.95404c0 18.357681 -14.881851 33.239517 -33.239517 33.239517l-181.332 0l0 0c-18.357677 0 -33.23951 -14.881836 -33.23951 -33.239517z" fill-rule="evenodd"/><path stroke="#000000" stroke-width="1.0" stroke-linejoin="round" stroke-linecap="butt" d="m21.530184 45.551846l0 0c0 -18.357674 14.881834 -33.23951 33.23951 -33.23951l181.332 0c8.815659 0 17.270264 3.5020094 23.503891 9.735626c6.233612 6.233618 9.735626 14.688217 9.735626 23.503883l0 132.95404c0 18.357681 -14.881851 33.239517 -33.239517 33.239517l-181.332 0l0 0c-18.357677 0 -33.23951 -14.881836 -33.23951 -33.239517z" fill-rule="evenodd"/><path fill="#d9d9d9" d="m58.923885 59.72725l0 0c0 -5.940441 4.8156776 -10.756119 10.756123 -10.756119l85.54288 0c2.8526917 0 5.588562 1.1332283 7.605728 3.1503944c2.0171509 2.0171623 3.1503906 4.753025 3.1503906 7.6057243l0 43.023193c0 5.9404373 -4.815674 10.756119 -10.756119 10.756119l-85.54288 0c-5.940445 0 -10.756123 -4.8156815 -10.756123 -10.756119z" fill-rule="evenodd"/><path stroke="#000000" stroke-width="1.0" stroke-linejoin="round" stroke-linecap="butt" d="m58.923885 59.72725l0 0c0 -5.940441 4.8156776 -10.756119 10.756123 -10.756119l85.54288 0c2.8526917 0 5.588562 1.1332283 7.605728 3.1503944c2.0171509 2.0171623 3.1503906 4.753025 3.1503906 7.6057243l0 43.023193c0 5.9404373 -4.815674 10.756119 -10.756119 10.756119l-85.54288 0c-5.940445 0 -10.756123 -4.8156815 -10.756123 -10.756119z" fill-rule="evenodd"/><path fill="#000000" d="m90.18365 95.35884l0 -3.875l3.859375 0l0 3.875l-3.859375 0zm9.146194 1.65625l3.3125 0.5q0.203125 1.53125 1.140625 2.21875q1.265625 0.953125 3.453125 0.953125q2.359375 0 3.640625 -0.953125q1.296875 -0.9375 1.75 -2.640625q0.265625 -1.03125 0.234375 -4.359375q-2.21875 2.625 -5.546875 2.625q-4.125 0 -6.390625 -2.984375q-2.265625 -2.984375 -2.265625 -7.15625q0 -2.859375 1.03125 -5.28125q1.046875 -2.4375 3.015625 -3.75q1.96875 -1.328125 4.625 -1.328125q3.5625 0 5.859375 2.875l0 -2.421875l3.125 0l0 17.328125q0 4.6875 -0.953125 6.640625q-0.953125 1.953125 -3.015625 3.078125q-2.0625 1.140625 -5.078125 1.140625q-3.59375 0 -5.8125 -1.625q-2.203125 -1.609375 -2.125 -4.859375zm2.8125 -12.03125q0 3.9375 1.5625 5.75q1.578125 1.8125 3.9375 1.8125q2.34375 0 3.921875 -1.796875q1.578125 -1.8125 1.578125 -5.65625q0 -3.6875 -1.640625 -5.546875q-1.625 -1.875 -3.921875 -1.875q-2.265625 0 -3.859375 1.84375q-1.578125 1.84375 -1.578125 5.46875zm19.326889 -13.390625l0 -3.90625l3.40625 0l0 3.90625l-3.40625 0zm0 23.765625l0 -20.046875l3.40625 0l0 20.046875l-3.40625 0zm15.994438 -3.03125l0.484375 3.0q-1.4375 0.296875 -2.5625 0.296875q-1.84375 0 -2.875 -0.578125q-1.015625 -0.59375 -1.4375 -1.546875q-0.40625 -0.953125 -0.40625 -4.015625l0 -11.53125l-2.5 0l0 -2.640625l2.5 0l0 -4.96875l3.375 -2.03125l0 7.0l3.421875 0l0 2.640625l-3.421875 0l0 11.71875q0 1.453125 0.171875 1.875q0.1875 0.421875 0.59375 0.671875q0.40625 0.234375 1.15625 0.234375q0.578125 0 1.5 -0.125z" fill-rule="nonzero"/><path fill="#000000" fill-opacity="0.0" d="m52.32546 142.82152l184.7559 0l0 24.944885l-184.7559 0z" fill-rule="evenodd"/><path fill="#000000" d="m63.184834 176.14153l0 -18.125l2.3906288 0l0 15.984375l8.9375 0l0 2.140625l-11.328129 0zm13.070683 -6.5625q0 -3.65625 2.03125 -5.40625q1.6875 -1.46875 4.125 -1.46875q2.703125 0 4.421875 1.78125q1.71875 1.78125 1.71875 4.90625q0 2.53125 -0.765625 3.984375q-0.75 1.453125 -2.203125 2.265625q-1.453125 0.796875 -3.171875 0.796875q-2.765625 0 -4.46875 -1.765625q-1.6875 -1.765625 -1.6875 -5.09375zm2.28125 0q0 2.515625 1.09375 3.78125q1.109375 1.25 2.78125 1.25q1.65625 0 2.75 -1.265625q1.109375 -1.265625 1.109375 -3.84375q0 -2.4375 -1.109375 -3.6875q-1.109375 -1.265625 -2.75 -1.265625q-1.671875 0 -2.78125 1.25q-1.09375 1.25 -1.09375 3.78125zm21.195679 1.75l2.1875 0.28125q-0.34375 2.265625 -1.828125 3.546875q-1.484375 1.28125 -3.625 1.28125q-2.703125 0 -4.34375 -1.765625q-1.640625 -1.765625 -1.640625 -5.046875q0 -2.125 0.703125 -3.71875q0.71875 -1.59375 2.15625 -2.390625q1.4375 -0.8125 3.125 -0.8125q2.140625 0 3.5 1.09375q1.359375 1.078125 1.75 3.0625l-2.171875 0.34375q-0.296875 -1.328125 -1.09375 -1.984375q-0.78125 -0.671875 -1.890625 -0.671875q-1.6875 0 -2.734375 1.203125q-1.046875 1.203125 -1.046875 3.8125q0 2.640625 1.015625 3.84375q1.015625 1.203125 2.640625 1.203125q1.3125 0 2.1875 -0.796875q0.875 -0.8125 1.109375 -2.484375zm12.6640625 3.1875q-1.234375 1.0625 -2.375 1.5q-1.140625 0.421875 -2.453125 0.421875q-2.171875 0 -3.328125 -1.046875q-1.15625 -1.0625 -1.15625 -2.71875q0 -0.953125 0.4375 -1.75q0.4375 -0.796875 1.140625 -1.28125q0.71875 -0.484375 1.609375 -0.734375q0.65625 -0.171875 1.96875 -0.328125q2.703125 -0.328125 3.96875 -0.765625q0.015625 -0.46875 0.015625 -0.59375q0 -1.359375 -0.625 -1.90625q-0.859375 -0.765625 -2.53125 -0.765625q-1.578125 0 -2.328125 0.5625q-0.75 0.546875 -1.109375 1.9375l-2.171875 -0.296875q0.296875 -1.390625 0.96875 -2.25q0.6875 -0.859375 1.96875 -1.328125q1.296875 -0.46875 2.984375 -0.46875q1.6875 0 2.734375 0.40625q1.046875 0.390625 1.546875 1.0q0.5 0.59375 0.6875 1.5q0.125 0.578125 0.125 2.0625l0 2.96875q0 3.09375 0.140625 3.921875q0.140625 0.828125 0.5625 1.578125l-2.328125 0q-0.34375 -0.6875 -0.453125 -1.625zm-0.1875 -4.96875q-1.203125 0.5 -3.625 0.84375q-1.375 0.203125 -1.953125 0.453125q-0.5625 0.234375 -0.875 0.71875q-0.296875 0.46875 -0.296875 1.046875q0 0.890625 0.671875 1.484375q0.671875 0.59375 1.96875 0.59375q1.28125 0 2.28125 -0.5625q1.0 -0.5625 1.484375 -1.53125q0.34375 -0.75 0.34375 -2.234375l0 -0.8125zm5.6644287 6.59375l0 -18.125l2.21875 0l0 18.125l-2.21875 0zm12.710945 0l0 -13.140625l1.984375 0l0 1.84375q0.625 -0.953125 1.640625 -1.546875q1.03125 -0.59375 2.34375 -0.59375q1.46875 0 2.390625 0.609375q0.9375 0.609375 1.328125 1.703125q1.546875 -2.3125 4.046875 -2.3125q1.953125 0 3.0 1.09375q1.0625 1.078125 1.0625 3.328125l0 9.015625l-2.21875 0l0 -8.28125q0 -1.328125 -0.21875 -1.90625q-0.21875 -0.59375 -0.78125 -0.953125q-0.5625 -0.359375 -1.328125 -0.359375q-1.390625 0 -2.3125 0.921875q-0.90625 0.921875 -0.90625 2.953125l0 7.625l-2.234375 0l0 -8.53125q0 -1.484375 -0.546875 -2.21875q-0.53125 -0.75 -1.78125 -0.75q-0.9375 0 -1.734375 0.5q-0.796875 0.484375 -1.15625 1.4375q-0.359375 0.953125 -0.359375 2.75l0 6.8125l-2.21875 0zm29.661026 -1.625q-1.234375 1.0625 -2.375 1.5q-1.140625 0.421875 -2.453125 0.421875q-2.171875 0 -3.328125 -1.046875q-1.15625 -1.0625 -1.15625 -2.71875q0 -0.953125 0.4375 -1.75q0.4375 -0.796875 1.140625 -1.28125q0.71875 -0.484375 1.609375 -0.734375q0.65625 -0.171875 1.96875 -0.328125q2.703125 -0.328125 3.96875 -0.765625q0.015625 -0.46875 0.015625 -0.59375q0 -1.359375 -0.625 -1.90625q-0.859375 -0.765625 -2.53125 -0.765625q-1.578125 0 -2.328125 0.5625q-0.75 0.546875 -1.109375 1.9375l-2.171875 -0.296875q0.296875 -1.390625 0.96875 -2.25q0.6875 -0.859375 1.96875 -1.328125q1.296875 -0.46875 2.984375 -0.46875q1.6875 0 2.734375 0.40625q1.046875 0.390625 1.546875 1.0q0.5 0.59375 0.6875 1.5q0.125 0.578125 0.125 2.0625l0 2.96875q0 3.09375 0.140625 3.921875q0.140625 0.828125 0.5625 1.578125l-2.328125 0q-0.34375 -0.6875 -0.453125 -1.625zm-0.1875 -4.96875q-1.203125 0.5 -3.625 0.84375q-1.375 0.203125 -1.953125 0.453125q-0.5625 0.234375 -0.875 0.71875q-0.296875 0.46875 -0.296875 1.046875q0 0.890625 0.671875 1.484375q0.671875 0.59375 1.96875 0.59375q1.28125 0 2.28125 -0.5625q1.0 -0.5625 1.484375 -1.53125q0.34375 -0.75 0.34375 -2.234375l0 -0.8125zm14.273804 1.78125l2.1875 0.28125q-0.34375 2.265625 -1.828125 3.546875q-1.484375 1.28125 -3.625 1.28125q-2.703125 0 -4.34375 -1.765625q-1.640625 -1.765625 -1.640625 -5.046875q0 -2.125 0.703125 -3.71875q0.71875 -1.59375 2.15625 -2.390625q1.4375 -0.8125 3.125 -0.8125q2.140625 0 3.5 1.09375q1.359375 1.078125 1.75 3.0625l-2.171875 0.34375q-0.296875 -1.328125 -1.09375 -1.984375q-0.78125 -0.671875 -1.890625 -0.671875q-1.6875 0 -2.734375 1.203125q-1.046875 1.203125 -1.046875 3.8125q0 2.640625 1.015625 3.84375q1.015625 1.203125 2.640625 1.203125q1.3125 0 2.1875 -0.796875q0.875 -0.8125 1.109375 -2.484375zm4.1015625 4.8125l0 -18.125l2.21875 0l0 6.5q1.5625 -1.8125 3.9375 -1.8125q1.453125 0 2.53125 0.578125q1.078125 0.578125 1.546875 1.59375q0.46875 1.015625 0.46875 2.9375l0 8.328125l-2.234375 0l0 -8.328125q0 -1.671875 -0.734375 -2.421875q-0.71875 -0.765625 -2.03125 -0.765625q-1.0 0 -1.875 0.515625q-0.859375 0.515625 -1.234375 1.390625q-0.375 0.875 -0.375 2.421875l0 7.1875l-2.21875 0zm14.101929 -15.578125l0 -2.546875l2.21875 0l0 2.546875l-2.21875 0zm0 15.578125l0 -13.140625l2.21875 0l0 13.140625l-2.21875 0zm5.6114807 0l0 -13.140625l2.0 0l0 1.875q1.453125 -2.171875 4.1875 -2.171875q1.1875 0 2.171875 0.4375q1.0 0.421875 1.484375 1.125q0.5 0.6875 0.703125 1.640625q0.125 0.609375 0.125 2.15625l0 8.078125l-2.234375 0l0 -7.984375q0 -1.359375 -0.265625 -2.03125q-0.25 -0.6875 -0.90625 -1.078125q-0.65625 -0.40625 -1.546875 -0.40625q-1.421875 0 -2.46875 0.90625q-1.03125 0.890625 -1.03125 3.421875l0 7.171875l-2.21875 0zm23.070679 -4.234375l2.296875 0.296875q-0.53125 2.015625 -2.015625 3.125q-1.46875 1.109375 -3.75 1.109375q-2.890625 0 -4.578125 -1.765625q-1.6875 -1.78125 -1.6875 -4.984375q0 -3.3125 1.703125 -5.140625q1.71875 -1.84375 4.4375 -1.84375q2.640625 0 4.296875 1.796875q1.671875 1.796875 1.671875 5.046875q0 0.203125 -0.015625 0.59375l-9.78125 0q0.109375 2.171875 1.203125 3.328125q1.109375 1.140625 2.765625 1.140625q1.21875 0 2.078125 -0.640625q0.875 -0.640625 1.375 -2.0625zm-7.3125 -3.59375l7.34375 0q-0.15625 -1.65625 -0.84375 -2.484375q-1.0625 -1.28125 -2.75 -1.28125q-1.546875 0 -2.59375 1.03125q-1.03125 1.015625 -1.15625 2.734375z" fill-rule="nonzero"/></g></svg>