<svg version="1.1" viewBox="0.0 0.0 311.3359580052493 499.1653543307087" fill="none" stroke="none" stroke-linecap="square" stroke-miterlimit="10" xmlns:xlink="http://www.w3.org/1999/xlink" xmlns="http://www.w3.org/2000/svg"><clipPath id="p.0"><path d="m0 0l311.33597 0l0 499.16534l-311.33597 0l0 -499.16534z" clip-rule="nonzero"/></clipPath><g clip-path="url(#p.0)"><path fill="#000000" fill-opacity="0.0" d="m0 0l311.33597 0l0 499.16534l-311.33597 0z" fill-rule="evenodd"/><path fill="#cfe2f3" d="m49.23622 316.14502l0 0c0 -18.357666 14.881836 -33.239502 33.23951 -33.239502l181.332 0c8.815674 0 17.270264 3.5020142 23.503876 9.735626c6.233612 6.233612 9.735626 14.688202 9.735626 23.503876l0 132.95404c0 18.357697 -14.881836 33.239532 -33.239502 33.239532l-181.332 0l0 0c-18.357674 0 -33.23951 -14.881836 -33.23951 -33.239532z" fill-rule="evenodd"/><path stroke="#000000" stroke-width="1.0" stroke-linejoin="round" stroke-linecap="butt" d="m49.23622 316.14502l0 0c0 -18.357666 14.881836 -33.239502 33.23951 -33.239502l181.332 0c8.815674 0 17.270264 3.5020142 23.503876 9.735626c6.233612 6.233612 9.735626 14.688202 9.735626 23.503876l0 132.95404c0 18.357697 -14.881836 33.239532 -33.239502 33.239532l-181.332 0l0 0c-18.357674 0 -33.23951 -14.881836 -33.23951 -33.239532z" fill-rule="evenodd"/><path fill="#d9d9d9" d="m86.62992 330.32043l0 0c0 -5.94046 4.8156815 -10.756134 10.756119 -10.756134l85.542885 0c2.8526917 0 5.588562 1.1332397 7.605713 3.1503906c2.0171661 2.0171814 3.150406 4.7530212 3.150406 7.6057434l0 43.023193c0 5.9404297 -4.815689 10.7561035 -10.756119 10.7561035l-85.542885 0c-5.9404373 0 -10.756119 -4.815674 -10.756119 -10.7561035z" fill-rule="evenodd"/><path stroke="#000000" stroke-width="1.0" stroke-linejoin="round" stroke-linecap="butt" d="m86.62992 330.32043l0 0c0 -5.94046 4.8156815 -10.756134 10.756119 -10.756134l85.542885 0c2.8526917 0 5.588562 1.1332397 7.605713 3.1503906c2.0171661 2.0171814 3.150406 4.7530212 3.150406 7.6057434l0 43.023193c0 5.9404297 -4.815689 10.7561035 -10.756119 10.7561035l-85.542885 0c-5.9404373 0 -10.756119 -4.815674 -10.756119 -10.7561035z" fill-rule="evenodd"/><path fill="#000000" d="m117.88969 365.95203l0 -3.875l3.859375 0l0 3.875l-3.859375 0zm9.146194 1.65625l3.3125076 0.5q0.203125 1.53125 1.140625 2.21875q1.265625 0.953125 3.453125 0.953125q2.359375 0 3.640625 -0.953125q1.296875 -0.9375 1.75 -2.640625q0.265625 -1.03125 0.234375 -4.359375q-2.21875 2.625 -5.546875 2.625q-4.125 0 -6.390625 -2.984375q-2.2656326 -2.984375 -2.2656326 -7.15625q0 -2.859375 1.03125 -5.28125q1.0468826 -2.4375 3.0156326 -3.75q1.96875 -1.328125 4.625 -1.328125q3.5625 0 5.859375 2.875l0 -2.421875l3.125 0l0 17.328125q0 4.6875 -0.953125 6.640625q-0.953125 1.953125 -3.015625 3.078125q-2.0625 1.140625 -5.078125 1.140625q-3.59375 0 -5.8125 -1.625q-2.2031326 -1.609375 -2.1250076 -4.859375zm2.8125076 -12.03125q0 3.9375 1.5625 5.75q1.578125 1.8125 3.9375 1.8125q2.34375 0 3.921875 -1.796875q1.578125 -1.8125 1.578125 -5.65625q0 -3.6875 -1.640625 -5.546875q-1.625 -1.875 -3.921875 -1.875q-2.265625 0 -3.859375 1.84375q-1.578125 1.84375 -1.578125 5.46875zm19.326889 -13.390625l0 -3.90625l3.40625 0l0 3.90625l-3.40625 0zm0 23.765625l0 -20.046875l3.40625 0l0 20.046875l-3.40625 0zm15.994431 -3.03125l0.484375 3.0q-1.4375 0.296875 -2.5625 0.296875q-1.84375 0 -2.875 -0.578125q-1.015625 -0.59375 -1.4375 -1.546875q-0.40625 -0.953125 -0.40625 -4.015625l0 -11.53125l-2.5 0l0 -2.640625l2.5 0l0 -4.96875l3.375 -2.03125l0 7.0l3.421875 0l0 2.640625l-3.421875 0l0 11.71875q0 1.453125 0.171875 1.875q0.1875 0.421875 0.59375 0.671875q0.40625 0.234375 1.15625 0.234375q0.578125 0 1.5 -0.125z" fill-rule="nonzero"/><path fill="#d9d9d9" d="m56.56693 38.504356l0 0c0 -11.608358 9.410435 -21.018791 21.018795 -21.018791l125.14351 0c5.574539 0 10.920746 2.2144718 14.862534 6.1562614c3.9417877 3.9417877 6.1562653 9.288002 6.1562653 14.86253l0 84.072655c0 11.608353 -9.410431 21.018784 -21.018799 21.018784l-125.14351 0l0 0c-11.60836 0 -21.018795 -9.410431 -21.018795 -21.018784z" fill-rule="evenodd"/><path stroke="#000000" stroke-width="1.0" stroke-linejoin="round" stroke-linecap="butt" d="m56.56693 38.504356l0 0c0 -11.608358 9.410435 -21.018791 21.018795 -21.018791l125.14351 0c5.574539 0 10.920746 2.2144718 14.862534 6.1562614c3.9417877 3.9417877 6.1562653 9.288002 6.1562653 14.86253l0 84.072655c0 11.608353 -9.410431 21.018784 -21.018799 21.018784l-125.14351 0l0 0c-11.60836 0 -21.018795 -9.410431 -21.018795 -21.018784z" fill-rule="evenodd"/><path fill="#000000" d="m95.939964 83.80131l0 -3.234375l11.71875 -0.03125l0 10.28125q-2.703125 2.140625 -5.578125 3.234375q-2.859375 1.078125 -5.890625 1.078125q-4.0625 0 -7.40625 -1.734375q-3.328125 -1.75 -5.03125 -5.046875q-1.6875 -3.3125 -1.6875 -7.390625q0 -4.046875 1.6875 -7.546875q1.6875 -3.5 4.859375 -5.1875q3.171875 -1.703125 7.296875 -1.703125q3.0 0 5.421875 0.96875q2.4375 0.96875 3.8125 2.71875q1.375 1.734375 2.09375 4.515625l-3.296875 0.90625q-0.625 -2.109375 -1.546875 -3.3125q-0.921875 -1.21875 -2.640625 -1.9375q-1.71875 -0.734375 -3.8125 -0.734375q-2.515625 0 -4.34375 0.765625q-1.828125 0.765625 -2.953125 2.015625q-1.125 1.25 -1.75 2.734375q-1.0625 2.5625 -1.0625 5.5625q0 3.703125 1.265625 6.203125q1.28125 2.484375 3.71875 3.703125q2.4375 1.203125 5.171875 1.203125q2.375 0 4.640625 -0.90625q2.265625 -0.921875 3.4375 -1.96875l0 -5.15625l-8.125 0zm16.69307 -12.90625l0 -3.90625l3.40625 0l0 3.90625l-3.40625 0zm0 23.765625l0 -20.046875l3.40625 0l0 20.046875l-3.40625 0zm15.994438 -3.03125l0.484375 3.0q-1.4375076 0.296875 -2.5625076 0.296875q-1.84375 0 -2.875 -0.578125q-1.015625 -0.59375 -1.4375 -1.546875q-0.40625 -0.953125 -0.40625 -4.015625l0 -11.53125l-2.5 0l0 -2.640625l2.5 0l0 -4.96875l3.375 -2.03125l0 7.0l3.4218826 0l0 2.640625l-3.4218826 0l0 11.71875q0 1.453125 0.171875 1.875q0.1875 0.421875 0.59375 0.671875q0.40625 0.234375 1.15625 0.234375q0.578125 0 1.5000076 -0.125zm3.8649445 3.03125l0 -27.671875l3.65625 0l0 11.359375l14.390625 0l0 -11.359375l3.65625 0l0 27.671875l-3.65625 0l0 -13.046875l-14.390625 0l0 13.046875l-3.65625 0zm40.510056 0l0 -2.9375q-2.34375 3.390625 -6.359375 3.390625q-1.78125 0 -3.328125 -0.671875q-1.53125 -0.6875 -2.28125 -1.71875q-0.734375 -1.03125 -1.03125 -2.515625q-0.21875 -1.0 -0.21875 -3.171875l0 -12.421875l3.40625 0l0 11.125q0 2.65625 0.203125 3.578125q0.328125 1.34375 1.359375 2.109375q1.03125 0.765625 2.5625 0.765625q1.53125 0 2.875 -0.78125q1.34375 -0.796875 1.890625 -2.140625q0.5625 -1.34375 0.5625 -3.921875l0 -10.734375l3.390625 0l0 20.046875l-3.03125 0zm11.498764 0l-3.15625 0l0 -27.671875l3.390625 0l0 9.875q2.15625 -2.703125 5.5 -2.703125q1.84375 0 3.5 0.75q1.65625 0.75 2.71875 2.09375q1.0625 1.34375 1.65625 3.25q0.609375 1.90625 0.609375 4.078125q0 5.15625 -2.546875 7.96875q-2.546875 2.8125 -6.109375 2.8125q-3.546875 0 -5.5625 -2.96875l0 2.515625zm-0.046875 -10.171875q0 3.609375 0.984375 5.203125q1.609375 2.625 4.34375 2.625q2.21875 0 3.84375 -1.921875q1.625 -1.9375 1.625 -5.78125q0 -3.921875 -1.5625 -5.78125q-1.546875 -1.875 -3.75 -1.875q-2.234375 0 -3.859375 1.9375q-1.625 1.9375 -1.625 5.59375z" fill-rule="nonzero"/><path fill="#000000" fill-opacity="0.0" d="m80.031494 413.4147l184.75592 0l0 24.944885l-184.75592 0z" fill-rule="evenodd"/><path fill="#000000" d="m90.89087 446.7347l0 -18.125l2.390625 0l0 15.984375l8.9375 0l0 2.140625l-11.328125 0zm13.070679 -6.5625q0 -3.65625 2.03125 -5.40625q1.6875 -1.46875 4.125 -1.46875q2.703125 0 4.421875 1.78125q1.71875 1.78125 1.71875 4.90625q0 2.53125 -0.765625 3.984375q-0.75 1.453125 -2.203125 2.265625q-1.453125 0.796875 -3.171875 0.796875q-2.765625 0 -4.46875 -1.765625q-1.6875 -1.765625 -1.6875 -5.09375zm2.28125 0q0 2.515625 1.09375 3.78125q1.109375 1.25 2.78125 1.25q1.65625 0 2.75 -1.265625q1.109375 -1.265625 1.109375 -3.84375q0 -2.4375 -1.109375 -3.6875q-1.109375 -1.265625 -2.75 -1.265625q-1.671875 0 -2.78125 1.25q-1.09375 1.25 -1.09375 3.78125zm21.195679 1.75l2.1875 0.28125q-0.34375 2.265625 -1.828125 3.546875q-1.484375 1.28125 -3.625 1.28125q-2.703125 0 -4.34375 -1.765625q-1.640625 -1.765625 -1.640625 -5.046875q0 -2.125 0.703125 -3.71875q0.71875 -1.59375 2.15625 -2.390625q1.4375 -0.8125 3.125 -0.8125q2.140625 0 3.5 1.09375q1.359375 1.078125 1.75 3.0625l-2.171875 0.34375q-0.296875 -1.328125 -1.09375 -1.984375q-0.78125 -0.671875 -1.890625 -0.671875q-1.6875 0 -2.734375 1.203125q-1.046875 1.203125 -1.046875 3.8125q0 2.640625 1.015625 3.84375q1.015625 1.203125 2.640625 1.203125q1.3125 0 2.1875 -0.796875q0.875 -0.8125 1.109375 -2.484375zm12.6640625 3.1875q-1.234375 1.0625 -2.375 1.5q-1.140625 0.421875 -2.453125 0.421875q-2.171875 0 -3.328125 -1.046875q-1.15625 -1.0625 -1.15625 -2.71875q0 -0.953125 0.4375 -1.75q0.4375 -0.796875 1.140625 -1.28125q0.71875 -0.484375 1.609375 -0.734375q0.65625 -0.171875 1.96875 -0.328125q2.703125 -0.328125 3.96875 -0.765625q0.015625 -0.46875 0.015625 -0.59375q0 -1.359375 -0.625 -1.90625q-0.859375 -0.765625 -2.53125 -0.765625q-1.578125 0 -2.328125 0.5625q-0.75 0.546875 -1.109375 1.9375l-2.171875 -0.296875q0.296875 -1.390625 0.96875 -2.25q0.6875 -0.859375 1.96875 -1.328125q1.296875 -0.46875 2.984375 -0.46875q1.6875 0 2.734375 0.40625q1.046875 0.390625 1.546875 1.0q0.5 0.59375 0.6875 1.5q0.125 0.578125 0.125 2.0625l0 2.96875q0 3.09375 0.140625 3.921875q0.140625 0.828125 0.5625 1.578125l-2.328125 0q-0.34375 -0.6875 -0.453125 -1.625zm-0.1875 -4.96875q-1.203125 0.5 -3.625 0.84375q-1.375 0.203125 -1.953125 0.453125q-0.5625 0.234375 -0.875 0.71875q-0.296875 0.46875 -0.296875 1.046875q0 0.890625 0.671875 1.484375q0.671875 0.59375 1.96875 0.59375q1.28125 0 2.28125 -0.5625q1.0 -0.5625 1.484375 -1.53125q0.34375 -0.75 0.34375 -2.234375l0 -0.8125zm5.6644287 6.59375l0 -18.125l2.21875 0l0 18.125l-2.21875 0zm12.710953 0l0 -13.140625l1.984375 0l0 1.84375q0.625 -0.953125 1.640625 -1.546875q1.03125 -0.59375 2.34375 -0.59375q1.46875 0 2.390625 0.609375q0.9375 0.609375 1.328125 1.703125q1.546875 -2.3125 4.046875 -2.3125q1.953125 0 3.0 1.09375q1.0625 1.078125 1.0625 3.328125l0 9.015625l-2.21875 0l0 -8.28125q0 -1.328125 -0.21875 -1.90625q-0.21875 -0.59375 -0.78125 -0.953125q-0.5625 -0.359375 -1.328125 -0.359375q-1.390625 0 -2.3125 0.921875q-0.90625 0.921875 -0.90625 2.953125l0 7.625l-2.234375 0l0 -8.53125q0 -1.484375 -0.546875 -2.21875q-0.53125 -0.75 -1.78125 -0.75q-0.9375 0 -1.734375 0.5q-0.796875 0.484375 -1.15625 1.4375q-0.359375 0.953125 -0.359375 2.75l0 6.8125l-2.21875 0zm29.661026 -1.625q-1.234375 1.0625 -2.375 1.5q-1.140625 0.421875 -2.453125 0.421875q-2.171875 0 -3.328125 -1.046875q-1.15625 -1.0625 -1.15625 -2.71875q0 -0.953125 0.4375 -1.75q0.4375 -0.796875 1.140625 -1.28125q0.71875 -0.484375 1.609375 -0.734375q0.65625 -0.171875 1.96875 -0.328125q2.703125 -0.328125 3.96875 -0.765625q0.015625 -0.46875 0.015625 -0.59375q0 -1.359375 -0.625 -1.90625q-0.859375 -0.765625 -2.53125 -0.765625q-1.578125 0 -2.328125 0.5625q-0.75 0.546875 -1.109375 1.9375l-2.171875 -0.296875q0.296875 -1.390625 0.96875 -2.25q0.6875 -0.859375 1.96875 -1.328125q1.296875 -0.46875 2.984375 -0.46875q1.6875 0 2.734375 0.40625q1.046875 0.390625 1.546875 1.0q0.5 0.59375 0.6875 1.5q0.125 0.578125 0.125 2.0625l0 2.96875q0 3.09375 0.140625 3.921875q0.140625 0.828125 0.5625 1.578125l-2.328125 0q-0.34375 -0.6875 -0.453125 -1.625zm-0.1875 -4.96875q-1.203125 0.5 -3.625 0.84375q-1.375 0.203125 -1.953125 0.453125q-0.5625 0.234375 -0.875 0.71875q-0.296875 0.46875 -0.296875 1.046875q0 0.890625 0.671875 1.484375q0.671875 0.59375 1.96875 0.59375q1.28125 0 2.28125 -0.5625q1.0 -0.5625 1.484375 -1.53125q0.34375 -0.75 0.34375 -2.234375l0 -0.8125zm14.273804 1.78125l2.1875 0.28125q-0.34375 2.265625 -1.828125 3.546875q-1.484375 1.28125 -3.625 1.28125q-2.703125 0 -4.34375 -1.765625q-1.640625 -1.765625 -1.640625 -5.046875q0 -2.125 0.703125 -3.71875q0.71875 -1.59375 2.15625 -2.390625q1.4375 -0.8125 3.125 -0.8125q2.140625 0 3.5 1.09375q1.359375 1.078125 1.75 3.0625l-2.171875 0.34375q-0.296875 -1.328125 -1.09375 -1.984375q-0.78125 -0.671875 -1.890625 -0.671875q-1.6875 0 -2.734375 1.203125q-1.046875 1.203125 -1.046875 3.8125q0 2.640625 1.015625 3.84375q1.015625 1.203125 2.640625 1.203125q1.3125 0 2.1875 -0.796875q0.875 -0.8125 1.109375 -2.484375zm4.1015625 4.8125l0 -18.125l2.21875 0l0 6.5q1.5625 -1.8125 3.9375 -1.8125q1.453125 0 2.53125 0.578125q1.078125 0.578125 1.546875 1.59375q0.46875 1.015625 0.46875 2.9375l0 8.328125l-2.234375 0l0 -8.328125q0 -1.671875 -0.734375 -2.421875q-0.71875 -0.765625 -2.03125 -0.765625q-1.0 0 -1.875 0.515625q-0.859375 0.515625 -1.234375 1.390625q-0.375 0.875 -0.375 2.421875l0 7.1875l-2.21875 0zm14.101929 -15.578125l0 -2.546875l2.21875 0l0 2.546875l-2.21875 0zm0 15.578125l0 -13.140625l2.21875 0l0 13.140625l-2.21875 0zm5.6114807 0l0 -13.140625l2.0 0l0 1.875q1.453125 -2.171875 4.1875 -2.171875q1.1875 0 2.171875 0.4375q1.0 0.421875 1.484375 1.125q0.5 0.6875 0.703125 1.640625q0.125 0.609375 0.125 2.15625l0 8.078125l-2.234375 0l0 -7.984375q0 -1.359375 -0.265625 -2.03125q-0.25 -0.6875 -0.90625 -1.078125q-0.65625 -0.40625 -1.546875 -0.40625q-1.421875 0 -2.46875 0.90625q-1.03125 0.890625 -1.03125 3.421875l0 7.171875l-2.21875 0zm23.070679 -4.234375l2.296875 0.296875q-0.53125 2.015625 -2.015625 3.125q-1.46875 1.109375 -3.75 1.109375q-2.890625 0 -4.578125 -1.765625q-1.6875 -1.78125 -1.6875 -4.984375q0 -3.3125 1.703125 -5.140625q1.71875 -1.84375 4.4375 -1.84375q2.640625 0 4.296875 1.796875q1.671875 1.796875 1.671875 5.046875q0 0.203125 -0.015625 0.59375l-9.78125 0q0.109375 2.171875 1.203125 3.328125q1.109375 1.140625 2.765625 1.140625q1.21875 0 2.078125 -0.640625q0.875 -0.640625 1.375 -2.0625zm-7.3125 -3.59375l7.34375 0q-0.15625 -1.65625 -0.84375 -2.484375q-1.0625 -1.28125 -2.75 -1.28125q-1.546875 0 -2.59375 1.03125q-1.03125 1.015625 -1.15625 2.734375z" fill-rule="nonzero"/><path fill="#000000" fill-opacity="0.0" d="m107.89501 142.13124l0 180.37794" fill-rule="evenodd"/><path stroke="#000000" stroke-width="3.0" stroke-linejoin="round" stroke-linecap="butt" d="m107.89501 160.13124l0 162.37794" fill-rule="evenodd"/><path fill="#000000" stroke="#000000" stroke-width="3.0" stroke-linecap="butt" d="m112.85021 160.13123l-4.9552 -13.614288l-4.9551926 13.614288z" fill-rule="evenodd"/><path fill="#000000" fill-opacity="0.0" d="m165.0862 319.5643l0 -175.9685" fill-rule="evenodd"/><path stroke="#000000" stroke-width="3.0" stroke-linejoin="round" stroke-linecap="butt" d="m165.0862 301.5643l0 -157.9685" fill-rule="evenodd"/><path fill="#000000" stroke="#000000" stroke-width="3.0" stroke-linecap="butt" d="m160.131 301.5643l4.9552 13.614288l4.9552 -13.614288z" fill-rule="evenodd"/><path fill="#000000" fill-opacity="0.0" d="m181.19685 197.85564l83.59056 0l0 55.716537l-83.59056 0z" fill-rule="evenodd"/><path fill="#000000" d="m191.94685 237.75252l0 -19.125l2.140625 0l0 1.796875q0.75 -1.046875 1.703125 -1.578125q0.953125 -0.53125 2.3125 -0.53125q1.765625 0 3.109375 0.921875q1.359375 0.90625 2.046875 2.5625q0.6875 1.65625 0.6875 3.640625q0 2.125 -0.765625 3.828125q-0.75 1.6875 -2.203125 2.59375q-1.453125 0.90625 -3.046875 0.90625q-1.171875 0 -2.109375 -0.484375q-0.921875 -0.5 -1.53125 -1.265625l0 6.734375l-2.34375 0zm2.125 -12.125q0 2.65625 1.078125 3.9375q1.09375 1.28125 2.625 1.28125q1.5625 0 2.671875 -1.3125q1.109375 -1.328125 1.109375 -4.109375q0 -2.640625 -1.09375 -3.953125q-1.078125 -1.3125 -2.59375 -1.3125q-1.484375 0 -2.640625 1.40625q-1.15625 1.390625 -1.15625 4.0625zm21.762436 6.828125l0 -2.03125q-1.609375 2.34375 -4.375 2.34375q-1.234375 0 -2.296875 -0.46875q-1.0625 -0.46875 -1.578125 -1.171875q-0.5 -0.71875 -0.71875 -1.75q-0.140625 -0.6875 -0.140625 -2.1875l0 -8.5625l2.34375 0l0 7.671875q0 1.828125 0.140625 2.46875q0.21875 0.921875 0.9375 1.453125q0.71875 0.53125 1.765625 0.53125q1.0625 0 1.984375 -0.53125q0.921875 -0.546875 1.296875 -1.46875q0.390625 -0.9375 0.390625 -2.71875l0 -7.40625l2.34375 0l0 13.828125l-2.09375 0zm5.715561 0l0 -19.078125l2.34375 0l0 19.078125l-2.34375 0zm5.922165 0l0 -19.078125l2.34375 0l0 19.078125l-2.34375 0z" fill-rule="nonzero"/><path fill="#000000" fill-opacity="0.0" d="m13.916011 203.72179l83.59055 0l0 55.716537l-83.59055 0z" fill-rule="evenodd"/><path fill="#000000" d="m24.66601 243.61865l0 -19.125l2.140625 0l0 1.796875q0.75 -1.046875 1.703125 -1.578125q0.953125 -0.53125 2.3125 -0.53125q1.7656269 0 3.109377 0.921875q1.359375 0.90625 2.046875 2.5625q0.6875 1.65625 0.6875 3.640625q0 2.125 -0.765625 3.828125q-0.75 1.6875 -2.203125 2.59375q-1.453125 0.90625 -3.046877 0.90625q-1.171875 0 -2.109375 -0.484375q-0.921875 -0.5 -1.53125 -1.265625l0 6.734375l-2.34375 0zm2.125 -12.125q0 2.65625 1.078125 3.9375q1.09375 1.28125 2.625 1.28125q1.5625019 0 2.671877 -1.3125q1.109375 -1.328125 1.109375 -4.109375q0 -2.640625 -1.09375 -3.953125q-1.078125 -1.3125 -2.593752 -1.3125q-1.484375 0 -2.640625 1.40625q-1.15625 1.390625 -1.15625 4.0625zm21.762438 6.828125l0 -2.03125q-1.609375 2.34375 -4.375 2.34375q-1.234375 0 -2.296875 -0.46875q-1.0625 -0.46875 -1.578125 -1.171875q-0.5 -0.71875 -0.71875 -1.75q-0.140625 -0.6875 -0.140625 -2.1875l0 -8.5625l2.34375 0l0 7.671875q0 1.828125 0.140625 2.46875q0.21875 0.921875 0.9375 1.453125q0.71875 0.53125 1.765625 0.53125q1.0625 0 1.984375 -0.53125q0.921875 -0.546875 1.296875 -1.46875q0.390625 -0.9375 0.390625 -2.71875l0 -7.40625l2.34375 0l0 13.828125l-2.09375 0zm4.824936 -4.125l2.328125 -0.359375q0.1875 1.390625 1.078125 2.140625q0.890625 0.734375 2.5 0.734375q1.609375 0 2.390625 -0.65625q0.78125 -0.65625 0.78125 -1.546875q0 -0.796875 -0.6875 -1.25q-0.484375 -0.3125 -2.390625 -0.796875q-2.578125 -0.65625 -3.578125 -1.125q-1.0 -0.46875 -1.515625 -1.3125q-0.515625 -0.84375 -0.515625 -1.859375q0 -0.921875 0.421875 -1.703125q0.4375 -0.796875 1.15625 -1.3125q0.546875 -0.40625 1.484375 -0.6875q0.953125 -0.28125 2.03125 -0.28125q1.625 0 2.859375 0.46875q1.234375 0.46875 1.8125 1.28125q0.5937462 0.796875 0.8124962 2.140625l-2.2968712 0.3125q-0.15625 -1.078125 -0.90625 -1.671875q-0.75 -0.59375 -2.109375 -0.59375q-1.609375 0 -2.3125 0.53125q-0.6875 0.53125 -0.6875 1.25q0 0.453125 0.296875 0.8125q0.28125 0.375 0.890625 0.625q0.359375 0.140625 2.078125 0.609375q2.484375 0.65625 3.46875 1.078125q0.984375 0.421875 1.5312462 1.234375q0.5625 0.796875 0.5625 2.0q0 1.171875 -0.6875 2.21875q-0.6718712 1.03125 -1.9687462 1.59375q-1.28125 0.5625 -2.90625 0.5625q-2.703125 0 -4.125 -1.109375q-1.40625 -1.125 -1.796875 -3.328125zm14.265621 4.125l0 -19.078125l2.34375 0l0 6.84375q1.640625 -1.90625 4.140625 -1.90625q1.546875 0 2.671875 0.609375q1.140625 0.609375 1.625 1.671875q0.484375 1.0625 0.484375 3.09375l0 8.765625l-2.34375 0l0 -8.765625q0 -1.75 -0.765625 -2.546875q-0.75 -0.8125 -2.15625 -0.8125q-1.03125 0 -1.953125 0.546875q-0.921875 0.546875 -1.3125 1.46875q-0.390625 0.921875 -0.390625 2.546875l0 7.5625l-2.34375 0z" fill-rule="nonzero"/></g></svg>